<?xml version="1.0" encoding="iso-8859-1"?>
<!-- Generator: Adobe Illustrator 16.0.0, SVG Export Plug-In . SVG Version: 6.00 Build 0)  -->
<!DOCTYPE svg PUBLIC "-//W3C//DTD SVG 1.1//EN" "http://www.w3.org/Graphics/SVG/1.1/DTD/svg11.dtd">
<svg version="1.1" id="Layer_1" xmlns="http://www.w3.org/2000/svg" xmlns:xlink="http://www.w3.org/1999/xlink" x="0px" y="0px"
	 width="386.05px" height="99.369px" viewBox="0 0 386.05 99.369" style="enable-background:new 0 0 386.05 99.369;"
	 xml:space="preserve">
<g>
	<g>
		<path style="fill:#465B94;" d="M123.108,6.785h17.888v4.558h-12.685v7.095h10.32v4.515h-10.32v10.707h-5.203V6.785z"/>
		<path style="fill:#465B94;" d="M147.102,10.225c-1.979,0-3.096-1.204-3.096-3.053c0-1.806,1.117-3.053,3.096-3.053
			c2.021,0,3.139,1.247,3.139,3.053C150.24,9.021,149.122,10.225,147.102,10.225z M144.564,33.659V13.965l5.074-0.731v20.425
			H144.564z"/>
		<path style="fill:#465B94;" d="M167.366,33.659V21.576c0-2.924-1.16-3.913-3.439-3.913c-1.763,0-3.397,0.903-4.386,1.849v14.147
			h-5.074V13.922l5.074-0.688c0,0,0,3.01,0,3.139c1.763-1.935,4.128-3.182,6.535-3.182c3.999,0,6.364,2.58,6.364,6.837v13.631
			H167.366z"/>
		<path style="fill:#465B94;" d="M190.388,4.936l5.075-0.688v29.412h-5.075c0,0,0-1.72,0-1.935c-1.332,1.29-3.139,2.58-5.59,2.58
			c-5.245,0-8.643-4.257-8.643-10.406c0-6.321,4.386-10.707,10.019-10.707c1.419,0,2.968,0.258,4.214,0.645V4.936z M186.647,17.233
			c-3.397,0-5.332,2.795-5.332,6.45c0,3.87,1.935,6.321,4.988,6.321c1.677,0,2.967-0.602,4.084-1.634c0,0.172,0-9.976,0-9.976
			C189.399,17.664,188.152,17.233,186.647,17.233z"/>
		<path style="fill:#465B94;" d="M215.587,13.836v12.083c0,2.924,1.203,3.87,3.354,3.87c1.805,0,3.396-0.817,4.342-1.72V13.836
			h5.074V33.53l-5.074,0.688c0,0,0-2.752,0-2.924c-1.633,1.763-3.998,3.01-6.535,3.01c-3.869,0-6.234-2.58-6.234-6.837V13.836
			H215.587z"/>
		<path style="fill:#465B94;" d="M239.648,34.347c-2.58,0-5.719-0.731-7.697-1.849l1.119-3.956c1.977,1.118,4.514,1.849,6.707,1.849
			c1.979,0,3.268-0.817,3.268-2.193c0-1.548-1.676-2.107-3.998-2.666c-3.742-0.86-6.709-2.408-6.709-6.149
			c0-3.741,3.139-6.192,7.912-6.192c2.451,0,5.375,0.645,7.225,1.591l-1.119,3.956c-1.934-0.989-4.471-1.634-6.234-1.634
			c-1.85,0-2.967,0.688-2.967,1.978c0,1.505,1.678,2.021,4,2.58c3.783,0.903,6.75,2.365,6.75,6.235
			C247.904,31.595,244.722,34.347,239.648,34.347z"/>
		<path style="fill:#465B94;" d="M270.693,34.304c-5.805,0-10.018-3.956-10.018-10.535c0-6.536,4.428-10.621,10.277-10.621
			c5.848,0,10.018,4.042,10.018,10.578C280.97,30.219,276.5,34.304,270.693,34.304z M270.779,17.233
			c-3.311,0-5.115,2.666-5.115,6.493c0,3.784,1.891,6.45,5.203,6.45c3.268,0,5.072-2.58,5.072-6.407
			C275.939,19.942,274.048,17.233,270.779,17.233z"/>
		<path style="fill:#465B94;" d="M297.646,33.659V21.576c0-2.924-1.16-3.913-3.439-3.913c-1.764,0-3.398,0.903-4.387,1.849v14.147
			h-5.074V13.922l5.074-0.688c0,0,0,3.01,0,3.139c1.764-1.935,4.129-3.182,6.535-3.182c4,0,6.365,2.58,6.365,6.837v13.631H297.646z"
			/>
	</g>
	<g>
		<g>
			<path style="fill:#465B94;" d="M123.108,51.579h28.285v7.207h-20.058v11.219h16.319v7.139h-16.319v16.931h-8.227V51.579z"/>
			<path style="fill:#465B94;" d="M170.999,90.471c-2.244,2.72-4.964,4.623-8.84,4.623c-5.644,0-9.723-3.875-9.723-8.839
				c0-5.779,4.216-10.675,18.562-11.15v-0.748c0-4.216-1.769-5.983-6.256-5.983c-3.195,0-7.071,1.428-10.403,3.331l-1.631-6.323
				c3.06-1.903,7.955-3.671,13.122-3.671c9.655,0,13.395,4.283,13.19,12.918v11.219c0,2.38,0.408,2.72,2.788,2.856l-0.612,6.051
				c-5.983,0.681-8.771-1.155-9.927-4.283H170.999z M170.999,79.319c-7.819,0.952-10.675,2.516-10.675,5.848
				c0,2.38,1.835,4.08,4.691,4.08c2.516,0,4.555-1.156,5.983-2.72V79.319z"/>
			<path style="fill:#465B94;" d="M200.49,95.094c-10.2,0-16.251-6.323-16.251-16.59c0-10.199,6.664-16.794,16.523-16.794
				c4.283,0,7.955,0.951,10.811,2.651l-1.699,6.459c-2.584-1.632-5.576-2.516-8.5-2.516c-5.779,0-8.907,3.943-8.907,9.995
				c0,6.392,3.604,10.131,8.907,10.131c3.264,0,6.256-0.884,8.703-2.447l1.293,6.527C208.648,94.143,204.705,95.094,200.49,95.094z"
				/>
			<path style="fill:#465B94;" d="M222.154,80.136c0.34,5.1,3.809,8.567,9.383,8.567c3.332,0,6.936-1.088,9.791-2.856l1.021,6.664
				c-2.992,1.632-7.141,2.583-11.355,2.583c-10.062,0-16.727-6.391-16.727-16.386c0-10.199,6.799-16.998,16.182-16.998
				c8.295,0,12.92,5.031,12.92,12.714c0,1.7-0.273,3.876-0.68,5.235c-0.068,0-20.535,0.272-20.535,0.272V80.136z M235.822,75.172
				c0-0.136,0-0.476,0-0.544c0-4.215-1.836-6.867-5.984-6.867c-4.42,0-7.07,3.604-7.479,7.479L235.822,75.172z"/>
			<path style="fill:#465B94;" d="M263.761,95.026c-2.039,0-4.963-0.408-7.002-1.088l-7.684,1.155V48.655l8.023-1.088
				c0,0,0,17.814,0,18.154c2.107-2.039,4.963-4.011,8.771-4.011c8.295,0,13.734,6.73,13.734,16.386
				C279.605,88.091,272.669,95.026,263.761,95.026z M263.558,68.44c-2.652,0-4.691,1.021-6.459,2.584c0-0.204,0,15.843,0,15.843
				c1.496,1.155,3.535,1.768,5.914,1.768c5.373,0,8.432-4.352,8.432-10.199C271.445,72.316,268.521,68.44,263.558,68.44z"/>
			<path style="fill:#465B94;" d="M299.251,95.094c-9.18,0-15.844-6.255-15.844-16.658c0-10.335,7.004-16.794,16.252-16.794
				c9.246,0,15.842,6.392,15.842,16.727C315.501,88.635,308.429,95.094,299.251,95.094z M299.386,68.101
				c-5.234,0-8.09,4.216-8.09,10.268c0,5.983,2.99,10.198,8.227,10.198c5.168,0,8.023-4.079,8.023-10.131
				C307.546,72.385,304.554,68.101,299.386,68.101z"/>
			<path style="fill:#465B94;" d="M335.236,95.094c-9.178,0-15.842-6.255-15.842-16.658c0-10.335,7.004-16.794,16.25-16.794
				c9.248,0,15.842,6.392,15.842,16.727C351.486,88.635,344.416,95.094,335.236,95.094z M335.373,68.101
				c-5.236,0-8.092,4.216-8.092,10.268c0,5.983,2.992,10.198,8.229,10.198c5.166,0,8.021-4.079,8.021-10.131
				C343.531,72.385,340.541,68.101,335.373,68.101z"/>
			<path style="fill:#465B94;" d="M365.041,78.979v15.095h-8.023V48.655l8.023-1.088v29.101h0.135l11.219-13.938h9.588
				L372.996,77.62l13.055,16.454h-9.588l-11.287-15.095H365.041z"/>
		</g>
	</g>
	<g>
		<path style="fill:#485A95;" d="M93.885,0H5.484C2.454,0,0,2.454,0,5.484v88.4c0,3.028,2.454,5.484,5.484,5.484h88.401
			c3.027,0,5.483-2.456,5.483-5.484v-88.4C99.368,2.454,96.912,0,93.885,0z"/>
		<path style="fill:#FFFFFF;" d="M81.479,60.888l1.933-14.997h-14.85v-9.575c0-4.341,1.205-7.3,7.432-7.3l7.94-0.003V15.598
			c-1.373-0.182-6.086-0.59-11.571-0.59c-11.45,0-19.289,6.989-19.289,19.824v11.06H40.126v14.997h12.949v38.481h15.488V60.888
			H81.479z"/>
	</g>
</g>
<g>
</g>
<g>
</g>
<g>
</g>
<g>
</g>
<g>
</g>
<g>
</g>
</svg>
